# xmcd
#
# Track frame offsets:
#	150
#	15195
#	30393
#	43672
#	58378
#	68971
#	81373
#	96257
#	123066
#	138805
#	153379
#	165481
#	181564
#	195971
#	209766
#	222360
#	236650
#	255304
#	267029
#	281091
#	299262
#	321558
#	334171
#
# Disc length: 4664 seconds
#
# Revision: 1
# Processed by: cddbd v1.5.2PL0 Copyright (c) Steve Scherf et al.
# Submitted via: audiograbber 1.83.01
#
DISCID=49123617
DTITLE=Various Artist - Behind Closed Doors: Where Country Meets Soul
DYEAR=2012
DGENRE=Country - Soul
TTITLE0=Aaron Neville - The Grand Tour
TTITLE1=Solomon Burke - He'll Have To Go
TTITLE2=Percy Sledge - Take Time To Know Her
TTITLE3=Esther Phillips - I Saw Me
TTITLE4=Moses And Joshua Dillard - My Elusive Dreams
TTITLE5=Ann Peebles - Hangin' On
TTITLE6=Bobby Sheen - My Shoes Keep Walking Back To You
TTITLE7=Tami Lynn - Wings Upon Your Horns
TTITLE8=The Limelites - Before The Next Teardrop Falls
TTITLE9=Al Green - I'm So Lonesome I Could Cry
TTITLE10=James Carr - Life Turned Her That Way
TTITLE11=Candi Staton - He Called Me Baby
TTITLE12=Z.Z. Hill - The Chokin' Kind
TTITLE13=Joe Simon - Yours, Love
TTITLE14=Cookie Jackson - Your Good Girl's Gonna Go Bad
TTITLE15=Arthur Alexander - Detroit City
TTITLE16=Tony Borders - Gentle On My Mind
TTITLE17=Bettye Swann - Don't Touch Me
TTITLE18=Clarence Carter - Set Me Free
TTITLE19=Little Milton - Behind Closed Doors
TTITLE20=Millie Jackson - If You're Not Back In Love By Monday
TTITLE21=Joe Tex - Skip A Rope
TTITLE22=Brook Benton - She Even Woke Me Up To Say Goodbye
EXTD=
EXTT0=
EXTT1=
EXTT2=
EXTT3=
EXTT4=
EXTT5=
EXTT6=
EXTT7=
EXTT8=
EXTT9=
EXTT10=
EXTT11=
EXTT12=
EXTT13=
EXTT14=
EXTT15=
EXTT16=
EXTT17=
EXTT18=
EXTT19=
EXTT20=
EXTT21=
EXTT22=
PLAYORDER=
